<?xml version="1.0" encoding="utf-8"?>
<!-- Generator: Adobe Illustrator 15.0.2, SVG Export Plug-In . SVG Version: 6.00 Build 0)  -->
<!DOCTYPE svg PUBLIC "-//W3C//DTD SVG 1.1//EN" "http://www.w3.org/Graphics/SVG/1.1/DTD/svg11.dtd">
<svg version="1.1" id="Layer_1" xmlns="http://www.w3.org/2000/svg" xmlns:xlink="http://www.w3.org/1999/xlink" x="0px" y="0px"
	 width="200px" height="100px" viewBox="0 50 200 100" enable-background="new 0 50 200 100" xml:space="preserve">
<g>
	<path fill="#FFFFFF" d="M155.466,106.988c0,0.96-0.647,1.744-1.44,1.744s-1.442-0.784-1.442-1.744V93.218
		c0-0.96,0.649-1.746,1.442-1.746s1.44,0.786,1.44,1.746V106.988z"/>
	<path fill="#FFFFFF" d="M131.057,106.988c0,0.96-0.649,1.744-1.441,1.744c-0.795,0-1.442-0.784-1.442-1.744V93.218
		c0-0.96,0.647-1.746,1.442-1.746c0.792,0,1.441,0.786,1.441,1.746V106.988z"/>
	<path fill="#FFFFFF" d="M172.264,91.468H161.23c-2.606,0-4.738,2.132-4.738,4.738v7.789c0,2.606,2.132,4.737,4.738,4.737h11.031
		c2.604,0,4.737-2.131,4.737-4.737v-7.789C177,93.601,174.867,91.468,172.264,91.468z M174.251,103.906
		c0,0.961-0.785,1.746-1.745,1.746h-11.52c-0.961,0-1.745-0.785-1.745-1.746v-7.611c0-0.961,0.784-1.746,1.745-1.746h11.52
		c0.96,0,1.745,0.785,1.745,1.746V103.906z"/>
	<path fill="#FFFFFF" d="M198.562,97.139c0-3.154-2.582-5.735-5.735-5.735h-8.413c-3.154,0-5.734,2.581-5.734,5.735l0.041,9.85
		c0,0.96,0.649,1.745,1.442,1.745s1.44-0.785,1.44-1.745c0,0-0.004-10.291-0.004-10.422c0-1.168,1.01-2.125,2.243-2.125h9.585
		c1.233,0,2.243,0.956,2.243,2.125c0,0.131,0.032,10.422,0.032,10.422c0,0.96,0.646,1.745,1.441,1.745
		c0.793,0,1.441-0.785,1.441-1.745L198.562,97.139z"/>
	<path fill="#FFFFFF" d="M21.597,105.646l-13.883,0.008c-1.372,0-2.493-1.122-2.493-2.494v-6.183c0-1.372,1.122-2.494,2.493-2.494
		l13.883-0.007c0.96,0,1.746-0.695,1.746-1.543c0-0.849-0.786-1.544-1.746-1.544L8.039,91.404c-3.154,0-5.735,2.581-5.735,5.735
		v5.86c0,3.153,2.581,5.733,5.735,5.733h13.559c0.96,0,1.746-0.694,1.746-1.543C23.344,106.34,22.557,105.646,21.597,105.646z"/>
	<g>
		<path fill="#FFFFFF" d="M106.055,100.527c0,0.842-0.785,1.529-1.746,1.529H92.221c-0.96,0-1.746-0.688-1.746-1.529
			c0-0.841,0.786-1.53,1.746-1.53h12.087C105.27,98.998,106.055,99.686,106.055,100.527z"/>
		<path fill="#FFFFFF" d="M105.389,105.646l-13.884,0.008c-1.372,0-2.494-1.122-2.494-2.494v-6.183c0-1.372,1.122-2.494,2.494-2.494
			l13.884-0.007c0.961,0,1.745-0.695,1.745-1.543c0-0.849-0.784-1.544-1.745-1.544l-13.56,0.015c-3.154,0-5.735,2.581-5.735,5.735
			v5.86c0,3.153,2.581,5.733,5.735,5.733h13.56c0.961,0,1.745-0.694,1.745-1.543C107.134,106.34,106.35,105.646,105.389,105.646z"/>
	</g>
	<path fill="#FFFFFF" d="M84.667,105.669l-12.915-0.015c-1.372,0-2.493-1.122-2.493-2.494l-0.034-9.963
		c0-0.106-0.011-0.21-0.026-0.312c-0.031-0.206-0.095-0.397-0.181-0.573c-0.252-0.512-0.71-0.859-1.235-0.859
		c-0.793,0-1.442,0.785-1.442,1.745V103c0,2.984,2.313,5.453,5.234,5.709c0.088,0.014,13.091,0.025,13.091,0.025
		c0.904,0,1.644-0.689,1.644-1.532C86.312,106.359,85.572,105.669,84.667,105.669z"/>
	<path fill="#FFFFFF" d="M108.214,93.693l2.769,5.447l4.315,8.34l0,0c0.444,0.737,1.306,1.207,2.259,1.244v0.01l0.084-0.002
		l0.08,0.002v-0.01c0.955-0.037,1.814-0.507,2.26-1.244l0.024-0.013l7.062-13.775c0.25-0.489,0.305-1.043,0.148-1.52
		c-0.122-0.375-0.367-0.673-0.689-0.837c-0.187-0.095-0.391-0.144-0.605-0.144c-0.646,0-1.281,0.429-1.62,1.092l-6.356,12.931
		c-0.104,0.161-0.201,0.219-0.289,0.215c-0.103,0.004-0.221-0.064-0.344-0.303c-0.009-0.016-0.022-0.018-0.031-0.031l-6.299-12.812
		c-0.338-0.663-0.973-1.092-1.619-1.092c-0.215,0-0.42,0.048-0.605,0.144c-0.371,0.189-0.631,0.542-0.732,0.993
		C107.924,92.773,107.99,93.256,108.214,93.693z"/>
	<path fill="#FFFFFF" d="M151.533,101.98c-0.01-0.16-0.023-0.303-0.045-0.407c-0.002-0.005-0.002-0.007-0.002-0.011
		c-0.207-1.387-1.35-2.507-2.828-2.825c-0.01-0.022-0.158-0.091-1.559-0.166c-0.227-0.018-0.449-0.033-0.574-0.033l-10.697-0.018
		c-0.961,0-1.746-0.785-1.746-1.746v-0.642c0-0.961,0.785-1.746,1.746-1.746h13.896c0.086,0,0.168-0.012,0.252-0.021
		c0.863-0.105,1.535-0.732,1.535-1.491c0-0.832-0.805-1.513-1.787-1.513h-14.771c-1.876,0-3.426,1.282-3.669,2.924
		c0,0.003-0.002,0.005-0.003,0.009c-0.021,0.106,0.003,4.233,0.004,4.237c0.208,1.397,1.361,2.526,2.857,2.833
		c-0.004,0.003-0.125,0.097,1.979,0.191c0.02,0.002,0.033-0.002,0.053-0.002c0.012,0,0.025,0.002,0.035,0.002l10.698,0.018
		c0.961,0,1.745,0.785,1.745,1.746v0.642c0,0.96-0.784,1.745-1.745,1.745l-13.896,0.001c-0.984,0-1.789,0.681-1.789,1.513
		c0,0.831,0.805,1.512,1.789,1.512h14.807c1.875,0,3.424-1.28,3.668-2.924c0-0.002,0.002-0.004,0.003-0.009
		c0.021-0.106,0.034-0.248,0.045-0.409C151.534,105.384,151.533,101.99,151.533,101.98z"/>
	<g>
		<path fill="#FFFFFF" d="M35.813,103.646c0,0.959-0.786,1.744-1.746,1.744h-0.245c-0.96,0-1.746-0.785-1.746-1.744v-0.463
			c0-0.959,0.786-1.744,1.746-1.744h0.245c0.96,0,1.746,0.785,1.746,1.744V103.646z"/>
		<path fill="#FFFFFF" d="M43.339,106.232l-2.769-5.446l-4.316-8.341l0,0c-0.444-0.738-1.305-1.207-2.259-1.244v-0.01l-0.082,0.002
			l-0.083-0.002v0.01c-0.955,0.037-1.814,0.506-2.259,1.244l-0.024,0.013l-7.061,13.774c-0.25,0.488-0.304,1.045-0.149,1.521
			c0.122,0.375,0.367,0.672,0.69,0.837c0.187,0.095,0.391,0.144,0.606,0.144c0.645,0,1.281-0.428,1.619-1.092l6.357-12.931
			c0.104-0.163,0.203-0.218,0.29-0.215c0.102-0.004,0.22,0.065,0.344,0.303c0.008,0.015,0.022,0.017,0.031,0.031l6.3,12.812
			c0.338,0.664,0.974,1.092,1.619,1.092c0.215,0,0.419-0.049,0.606-0.144c0.372-0.188,0.631-0.542,0.732-0.993
			C43.629,107.152,43.562,106.67,43.339,106.232z"/>
	</g>
	<path fill="#FFFFFF" d="M65.386,96.351c0-2.743-2.244-4.987-4.987-4.987H46.343c-0.686,0-1.247,0.561-1.247,1.247v14.877
		c0,0.686,0.561,1.246,1.247,1.246h14.056c2.743,0,4.987-2.243,4.987-4.986v-0.221c0-1.351-0.546-2.577-1.425-3.479
		c0.879-0.9,1.425-2.127,1.425-3.478V96.351z M48.046,95.141c0-0.411,0.336-0.748,0.748-0.748l11.988,0.005
		c0.96,0,1.746,0.785,1.746,1.746v0.642c0,0.961-0.786,1.746-1.746,1.746H48.794c-0.411,0-0.748-0.337-0.748-0.748V95.141z
		 M62.527,103.963c0,0.96-0.786,1.745-1.746,1.745l-11.988,0.001c-0.411,0-0.748-0.337-0.748-0.748v-2.643
		c0-0.411,0.336-0.748,0.748-0.748l11.988,0.005c0.96,0,1.746,0.784,1.746,1.745V103.963z"/>
</g>
</svg>
