<?xml version="1.0" encoding="utf-8"?>
<!-- Generator: Adobe Illustrator 15.0.2, SVG Export Plug-In . SVG Version: 6.00 Build 0)  -->
<!DOCTYPE svg PUBLIC "-//W3C//DTD SVG 1.1//EN" "http://www.w3.org/Graphics/SVG/1.1/DTD/svg11.dtd">
<svg version="1.1" id="Layer_1" xmlns="http://www.w3.org/2000/svg" xmlns:xlink="http://www.w3.org/1999/xlink" x="0px" y="0px"
	 width="200px" height="100px" viewBox="0 50 200 100" enable-background="new 0 50 200 100" xml:space="preserve">
<g>
	<path fill="#FFFFFF" d="M83.458,87.199c2.892-0.925,5.784-1.85,8.676-2.776C77.009,69.805,52.89,68.272,35.566,80.259
		c-14.807,10.758-13.766,25.912-2.082,35.052c22.62,15.897,45.061,9.354,57.956-3.472c-3.239-0.114-6.479-0.231-9.717-0.346
		c-14.113,7.634-27.3,7.864-39.562,0.692c-8.62-6.36-12.438-14.921-2.777-24.986C51.472,76.788,70.328,76.094,83.458,87.199
		L83.458,87.199z"/>
	<path fill="#FFFFFF" d="M64.397,102.93c3.017-1.721,4.615-3.772,4.138-6.013c-3.901-9.449-31.402-12.159-54.833-6.247
		c-3.124-0.462-6.742-0.925-9.865-1.388c14.394-7.388,45.968-9.487,67.696,0.099c8.688,4.81,9.738,10.032,2.9,15.17
		c-3.188,1.762-6.56,3.197-10.037,4.358L64.397,102.93L64.397,102.93z"/>
	<path fill="#FFFFFF" d="M12.314,104.204c22.803,8.369,58.249,2.233,56.221-7.287c-3.901-9.449-31.402-12.159-54.833-6.247
		c-3.124-0.462-6.742-0.925-9.865-1.388c14.394-7.388,45.968-9.487,67.696,0.099c8.688,4.81,9.738,10.032,2.9,15.17
		c-26.616,14.682-65.855,7.208-74.613,0C3.986,104.436,8.15,104.318,12.314,104.204L12.314,104.204z"/>
	<path fill="#FFFFFF" d="M83.458,87.199c2.892-0.925,5.784-1.85,8.676-2.776C77.009,69.805,52.89,68.272,35.566,80.259
		c-5.475,3.978-8.78,8.557-10.185,13.21h9.559c0.917-2.016,2.368-4.108,4.443-6.27C51.472,76.788,70.328,76.094,83.458,87.199
		L83.458,87.199z"/>
	<path fill="#FFFFFF" d="M94.263,93.983c0.319-1.171,0.637-2.342,0.956-3.513c-8.681-1.887-14.256,0.455-15.292,8.977
		c-0.309,9.504,6.16,10.87,14.527,9.954c-0.128-1.236-0.255-2.473-0.382-3.709c-5.289,0.718-8.984-0.52-9.175-6.049
		C85.142,93.838,89.415,93.519,94.263,93.983L94.263,93.983z"/>
	<path fill="#FFFFFF" d="M109.887,109.047c-0.049-6.758-0.097-13.515-0.145-20.273c1.587,0,3.175,0,4.764,0
		c0.023,2.441,0.049,4.881,0.072,7.321c2.55-1.713,5.1-2.135,7.65,0.281c2.574,3.293,2.959,7.704,0.145,10.981
		c-1.443,1.899-4.668,3.314-7.361,1.127c-0.818-1.221-1.349-1.221-1.589,0c0,0.211,0,0.422,0,0.634
		C112.244,109.094,111.064,109.07,109.887,109.047L109.887,109.047z M116.852,98.418c1.332,0,2.418,1.55,2.418,3.449
		c0,1.898-1.086,3.449-2.418,3.449s-2.418-1.551-2.418-3.449C114.434,99.968,115.52,98.418,116.852,98.418L116.852,98.418z"/>
	<polygon fill="#FFFFFF" points="125.188,88.704 130.458,88.704 130.458,109.259 125.188,109.259 	"/>
	<path fill="#FFFFFF" d="M145.616,108.979c0-4.601,0-9.2,0-13.798c1.251,0.024,2.502,0.047,3.754,0.07c0,0.587,0,1.173,0,1.76
		c1.028-2.622,6.719-3.15,8.229,0.211c1.088-3.074,8.148-3.214,9.094,0.633l0.217,11.123c-1.611,0.069-3.151-0.07-4.764,0
		c-0.049-2.979-0.098-5.959-0.146-8.939c-0.241-1.956-3.224-1.271-3.319-0.211c-0.097,3.097,0.023,6.054-0.072,9.15
		c-1.516,0.004-3.394,0.127-4.907-0.07c-0.05-3.051,0.048-6.029,0-9.08c-0.626-1.526-2.912-1.526-3.394,0.211
		c-0.072,2.885,0,6.053-0.072,8.939C148.744,109.07,147.107,108.883,145.616,108.979L145.616,108.979z"/>
	<path fill="#FFFFFF" d="M104.012,107.777c0.19,0.437,0.199,0.826,0.391,1.261c1.02,0,2.223,0.045,3.242,0.045
		c-0.063-3.417-0.082-6.834-0.146-10.252c0.242-3.529-7.493-5.378-10.941-2.796c0.064,0.746,0.449,1.94,0.513,2.686
		c1.937-0.894,3.782-1.244,5.222-0.448c1.04,0.731,1.04,1.104,0,1.118c-5.67,0.311-7.477,2.585-7.072,6.151
		c0.312,3.81,5.955,4.843,7.525,2.735C102.965,107.501,103.686,107.52,104.012,107.777L104.012,107.777z M103.438,104.775
		c0.047-0.436,0.268-1.946-0.047-2.383c-2.802-0.311-4.031,0.912-3.775,2.59C100.319,106.539,102.419,106.516,103.438,104.775
		L103.438,104.775z"/>
	<path fill="#FFFFFF" d="M176.816,107.777c0.19,0.437,0.199,0.826,0.391,1.261c1.02,0,2.223,0.045,3.241,0.045
		c-0.063-3.417-0.081-6.834-0.146-10.252c0.242-3.529-7.492-5.378-10.941-2.796c0.063,0.746,0.449,1.94,0.513,2.686
		c1.938-0.894,3.782-1.244,5.224-0.448c1.039,0.731,1.039,1.104,0,1.118c-5.672,0.311-7.479,2.585-7.072,6.151
		c0.312,3.81,5.955,4.843,7.523,2.735C175.771,107.501,176.488,107.52,176.816,107.777L176.816,107.777z M176.243,104.775
		c0.047-0.436,0.267-1.946-0.046-2.383c-2.803-0.311-4.031,0.912-3.777,2.59C173.124,106.539,175.225,106.516,176.243,104.775
		L176.243,104.775z"/>
	<polygon fill="#FFFFFF" points="172.828,93.631 176.148,93.702 179.036,89.689 175.354,89.76 	"/>
	<path fill="#FFFFFF" d="M182.12,108.309c0.155-0.974,0.312-1.947,0.467-2.92c1.915,0.53,3.868,1.133,5.146,0.547
		c0.813-0.64,0.531-1.063,0.094-1.459c-3.062-1.026-5.23-2.396-5.426-4.517c-0.348-1.796,0.658-3.83,3.367-4.653
		c2.09-0.669,4.053-0.396,5.895,0.639c-0.232,0.806-0.469,1.611-0.702,2.418c-1.729-0.715-3.272-0.699-4.067-0.229
		c-0.502,0.487-0.785,1.323,0.467,1.87c2.15,0.407,4.412,1.646,5.052,3.786c0.248,3.063-1.183,4.569-3.554,5.2
		C186.811,109.732,184.541,109.391,182.12,108.309L182.12,108.309z"/>
	<path fill="#FFFFFF" d="M144.533,103.416c0.121-4.775-1.973-8.694-6.208-8.659c-4.901,0.117-7.151,3.309-7.073,7.603
		c0.426,7.914,8.954,7.832,12.199,5.983l-0.434-2.745c-4.723,1.178-7.31-0.593-7.508-2.183
		C138.566,103.275,141.479,103.557,144.533,103.416L144.533,103.416z M135.365,100.459c0.892-3.567,4.669-3.332,5.342,0
		C138.879,100.436,137.195,100.483,135.365,100.459L135.365,100.459z"/>
	<path fill="#FFFFFF" d="M196.715,104.546c0.438,0,0.866,0.113,1.284,0.337c0.417,0.227,0.742,0.547,0.976,0.967
		c0.232,0.418,0.351,0.854,0.351,1.31c0,0.45-0.115,0.882-0.345,1.297c-0.23,0.415-0.553,0.737-0.965,0.967
		c-0.416,0.229-0.848,0.345-1.301,0.345c-0.451,0-0.884-0.115-1.297-0.345c-0.415-0.229-0.736-0.552-0.969-0.967
		c-0.23-0.415-0.346-0.847-0.346-1.297c0-0.454,0.117-0.892,0.351-1.31c0.233-0.42,0.562-0.74,0.979-0.967
		C195.85,104.659,196.277,104.546,196.715,104.546L196.715,104.546z M196.715,104.979c-0.365,0-0.723,0.097-1.068,0.282
		c-0.349,0.188-0.619,0.458-0.815,0.806c-0.195,0.351-0.294,0.715-0.294,1.093c0,0.376,0.097,0.735,0.289,1.081
		c0.191,0.345,0.462,0.613,0.808,0.806c0.347,0.192,0.706,0.29,1.082,0.29c0.377,0,0.737-0.098,1.083-0.29
		c0.346-0.19,0.614-0.461,0.807-0.806c0.19-0.346,0.285-0.705,0.285-1.081c0-0.378-0.096-0.742-0.291-1.093
		c-0.195-0.348-0.466-0.616-0.813-0.806C197.436,105.074,197.079,104.979,196.715,104.979L196.715,104.979z M195.57,108.602v-2.809
		h0.965c0.33,0,0.568,0.023,0.717,0.076c0.146,0.052,0.264,0.143,0.354,0.271c0.088,0.129,0.131,0.267,0.131,0.411
		c0,0.205-0.072,0.384-0.221,0.536c-0.146,0.152-0.341,0.237-0.582,0.256c0.101,0.041,0.18,0.092,0.237,0.149
		c0.114,0.11,0.252,0.297,0.417,0.557l0.342,0.55h-0.555l-0.248-0.441c-0.195-0.35-0.354-0.566-0.475-0.654
		c-0.082-0.064-0.203-0.097-0.363-0.097h-0.266v1.192h-0.453V108.602z M196.023,107.021h0.55c0.264,0,0.442-0.041,0.538-0.119
		c0.096-0.077,0.145-0.182,0.145-0.312c0-0.082-0.023-0.155-0.07-0.223c-0.045-0.063-0.108-0.115-0.19-0.146
		c-0.083-0.033-0.233-0.049-0.455-0.049h-0.517V107.021L196.023,107.021z"/>
	<path fill="#FFFFFF" d="M49.986,104.646c-4.044,0-7.324-3.28-7.324-7.324c0-4.045,3.28-7.325,7.324-7.325
		c4.045,0,7.325,3.28,7.325,7.325C57.311,101.366,54.031,104.646,49.986,104.646L49.986,104.646z"/>
</g>
</svg>
