<?xml version="1.0" encoding="utf-8"?>
<!-- Generator: Adobe Illustrator 15.0.2, SVG Export Plug-In . SVG Version: 6.00 Build 0)  -->
<!DOCTYPE svg PUBLIC "-//W3C//DTD SVG 1.1//EN" "http://www.w3.org/Graphics/SVG/1.1/DTD/svg11.dtd">
<svg version="1.1" id="Layer_1" xmlns="http://www.w3.org/2000/svg" xmlns:xlink="http://www.w3.org/1999/xlink" x="0px" y="0px"
	 width="200px" height="100px" viewBox="0 50 200 100" enable-background="new 0 50 200 100" xml:space="preserve">
<g>
	<g>
		<g>
			<path fill="#FFFFFF" d="M18.071,104.018l0.322-0.304l2.102,2.06c-2.508,2.541-4.764,3.937-8.551,3.937
				c-5.913,0-10.362-4.593-10.362-10.656c0-6.094,4.484-10.708,10.448-10.708c4.009,0,6.234,1.576,8.021,3.257l0.319,0.31l-2.13,2.3
				c-1.906-1.794-3.549-2.904-6.243-2.904c-4.098,0-7.209,3.289-7.209,7.685c0,4.436,3.111,7.744,7.209,7.744
				C14.66,106.738,16.339,105.671,18.071,104.018z"/>
			<path fill="#FFFFFF" d="M60.184,94.087c0,1.963-0.871,3.51-2.498,4.528c2.355,0.964,3.605,2.598,3.605,4.874
				c0,3.668-2.998,5.88-7.625,5.88h-9.243V88.69h8.874C57.413,88.69,60.184,90.765,60.184,94.087z M47.525,106.462h6.19
				c2.854,0,4.416-1.209,4.416-3.112c0-1.853-1.584-2.971-4.814-2.971h-5.792V106.462z M47.525,97.504h5.406
				c2.639,0,4.097-1.197,4.097-3.116c0-1.707-1.38-2.796-3.926-2.796h-5.577V97.504z"/>
			<path fill="#FFFFFF" d="M67.581,88.69v17.708h11.131v2.971H64.448V88.69H67.581z"/>
			<path fill="#FFFFFF" d="M85.175,100.408v6.021h11.829v2.938H82.045V88.69h14.82v2.934h-11.69v5.852h10.412v2.933L85.175,100.408
				L85.175,100.408z"/>
			<path fill="#FFFFFF" d="M123.986,88.69v20.679h-3.127V88.69H123.986z"/>
			<path fill="#FFFFFF" d="M131.508,94.087c0,1.501,0.631,2.491,5.018,3.427c4.67,1.017,6.798,2.81,6.798,6.064
				c0,3.658-2.952,6.074-7.204,6.074c-3.215,0-5.881-1.047-8.385-3.282l-0.327-0.29l1.969-2.331c2.14,1.937,3.888,2.989,6.826,2.989
				c2.438,0,3.95-1.223,3.95-2.936c0-1.496-0.592-2.469-4.774-3.349c-4.096-0.887-7.006-2.277-7.006-6.17
				c0-3.441,2.976-5.875,6.948-5.875c2.863,0,5.037,0.756,7.242,2.524l0.33,0.273l-1.836,2.444l-0.361-0.292
				c-1.723-1.407-3.439-2.05-5.426-2.05C132.98,91.309,131.508,92.504,131.508,94.087z"/>
			<path fill="#FFFFFF" d="M150.302,88.69v20.679h-3.135V88.69H150.302z"/>
			<path fill="#FFFFFF" d="M153.749,99.053c0-5.997,4.644-10.708,10.565-10.708c5.987,0,10.512,4.586,10.512,10.649
				c0,6.003-4.643,10.715-10.569,10.715C158.271,109.709,153.749,105.121,153.749,99.053z M164.314,106.738
				c4.152,0,7.293-3.287,7.293-7.687c0-4.429-3.168-7.744-7.352-7.744c-4.146,0-7.287,3.292-7.287,7.685
				C156.971,103.43,160.129,106.738,164.314,106.738z"/>
			<path fill="#FFFFFF" d="M192.256,88.69h2.623h0.447v20.679h-2.439l-12.109-15.375v15.375h-3.075V88.69h2.759l11.796,15
				L192.256,88.69L192.256,88.69z"/>
		</g>
		<g>
			<g>
				<g>
					<path fill="#FFFFFF" d="M31.921,93.056l-6.771,16.313h-3.378l8.89-20.82h2.577l8.889,20.82h-3.475L31.921,93.056z"/>
				</g>
			</g>
			<g>
				<path fill="#FFFFFF" d="M108.445,104.997l6.767-16.3h3.379l-8.885,20.813h-2.573L98.24,88.697h3.472L108.445,104.997z"/>
			</g>
		</g>
	</g>
	<g>
		<path fill="#FFFFFF" d="M197.973,84.632c1.107,0,1.988,0.901,1.988,2.026c0,1.143-0.881,2.038-1.997,2.038
			c-1.104,0-2.009-0.895-2.009-2.038c0-1.125,0.902-2.026,2.009-2.026H197.973z M197.964,84.95c-0.891,0-1.623,0.765-1.623,1.709
			c0,0.965,0.732,1.722,1.632,1.722c0.898,0.008,1.62-0.757,1.62-1.709c0-0.957-0.722-1.722-1.62-1.722H197.964z M197.583,87.837
			h-0.356v-2.258c0.19-0.025,0.367-0.053,0.637-0.053c0.343,0,0.568,0.071,0.703,0.169c0.134,0.101,0.207,0.25,0.207,0.468
			c0,0.299-0.198,0.477-0.441,0.55v0.02c0.197,0.036,0.333,0.217,0.38,0.548c0.054,0.354,0.108,0.486,0.144,0.556h-0.375
			c-0.056-0.07-0.11-0.278-0.153-0.576c-0.06-0.287-0.199-0.391-0.49-0.391h-0.252v0.967H197.583z M197.583,86.591h0.265
			c0.293,0,0.547-0.111,0.547-0.393c0-0.194-0.143-0.394-0.547-0.394c-0.119,0-0.199,0.01-0.265,0.019V86.591z"/>
	</g>
</g>
</svg>
