<?xml version="1.0" encoding="utf-8"?>
<!-- Generator: Adobe Illustrator 15.0.2, SVG Export Plug-In . SVG Version: 6.00 Build 0)  -->
<!DOCTYPE svg PUBLIC "-//W3C//DTD SVG 1.1//EN" "http://www.w3.org/Graphics/SVG/1.1/DTD/svg11.dtd">
<svg version="1.1" id="Layer_1" xmlns="http://www.w3.org/2000/svg" xmlns:xlink="http://www.w3.org/1999/xlink" x="0px" y="0px"
	 width="200px" height="100px" viewBox="0 50 200 100" enable-background="new 0 50 200 100" xml:space="preserve">
<g>
	<g>
		<path fill="#FFFFFF" d="M103.375,79.994c-4.676,0-8.459,3.795-8.459,8.446c0,4.686,3.783,8.46,8.459,8.46
			c4.68,0,8.447-3.774,8.447-8.46C111.822,83.79,108.057,79.994,103.375,79.994z M161.145,50c-11.517,0-21.836,5.072-28.883,13.071
			c-7.048-8-17.386-13.071-28.887-13.071c-9.731,0-18.627,3.622-25.395,9.586l3.095-8.147H54.939l-13.659,45l-13.684-45H0.617
			l19.428,49.946c0.701,1.904,2.241,5.574,3.586,9.236c1.347,3.654,2.509,7.354,2.509,9.043c-0.03,4.494-3.729,7.254-9.105,7.297
			H8.012v19.975H20.03c8.223,0,14.568-0.475,19.695-2.953c5.127-2.48,8.865-7.006,11.809-14.85l0,0l13.684-35.986
			c2.325,19.023,18.519,33.757,38.157,33.757c11.501,0,21.838-5.057,28.887-13.068c7.045,8.014,17.366,13.068,28.883,13.068
			c21.222,0,38.451-17.215,38.451-38.463C199.598,67.22,182.365,50,161.145,50z M103.375,106.424
			c-9.932,0-17.986-8.039-17.986-17.985c0-9.917,8.054-17.971,17.986-17.971c9.936,0,17.984,8.054,17.984,17.971
			C121.359,98.387,113.311,106.424,103.375,106.424z M161.145,106.424c-9.946,0-18-8.039-18-17.985c0-9.917,8.053-17.971,18-17.971
			c9.918,0,17.982,8.054,17.982,17.971C179.127,98.387,171.062,106.424,161.145,106.424z M161.145,79.994
			c-4.664,0-8.461,3.795-8.461,8.446c0,4.686,3.799,8.46,8.461,8.46c4.648,0,8.461-3.774,8.461-8.46
			C169.605,83.79,165.793,79.994,161.145,79.994z"/>
		<g>
			<path fill="#FFFFFF" d="M194.16,57.253c-0.967,0-1.807-0.328-2.521-1.055c-0.697-0.707-1.064-1.557-1.064-2.576
				c0-0.997,0.367-1.865,1.064-2.572c0.717-0.696,1.555-1.05,2.521-1.05c1.007,0,1.863,0.354,2.548,1.05
				c0.717,0.707,1.054,1.573,1.054,2.572c0,1.019-0.337,1.869-1.054,2.576C196.023,56.924,195.167,57.253,194.16,57.253z
				 M194.16,50.421c-0.842,0-1.582,0.322-2.186,0.94c-0.617,0.642-0.928,1.406-0.928,2.262c0,0.887,0.311,1.622,0.928,2.259
				c0.604,0.619,1.346,0.943,2.186,0.943c0.867,0,1.599-0.324,2.229-0.943c0.612-0.637,0.895-1.372,0.895-2.259
				c0-0.856-0.281-1.619-0.895-2.262C195.759,50.742,195.027,50.421,194.16,50.421z M195.111,55.644l-0.965-1.682l-0.676,0.012
				v1.661h-0.433v-4.041h1.262c0.351,0,0.644,0.122,0.884,0.343c0.252,0.22,0.35,0.511,0.35,0.84c0,0.301-0.085,0.542-0.237,0.744
				c-0.153,0.189-0.377,0.322-0.657,0.397l0.993,1.717L195.111,55.644z M194.259,52.003h-0.786v1.573h0.786
				c0.235,0,0.459-0.088,0.589-0.231c0.18-0.145,0.252-0.323,0.252-0.554c0-0.213-0.072-0.399-0.252-0.567
				C194.693,52.092,194.497,52.003,194.259,52.003z"/>
		</g>
	</g>
</g>
</svg>
