<?xml version="1.0" encoding="utf-8"?>
<!-- Generator: Adobe Illustrator 15.0.2, SVG Export Plug-In . SVG Version: 6.00 Build 0)  -->
<!DOCTYPE svg PUBLIC "-//W3C//DTD SVG 1.1//EN" "http://www.w3.org/Graphics/SVG/1.1/DTD/svg11.dtd">
<svg version="1.1" id="Layer_1" xmlns="http://www.w3.org/2000/svg" xmlns:xlink="http://www.w3.org/1999/xlink" x="0px" y="0px"
	 width="200px" height="100px" viewBox="0 50 200 100" enable-background="new 0 50 200 100" xml:space="preserve">
<g>
	<g>
		<g>
			<path fill="#FFFFFF" d="M99.293,97.28v5.873c-0.994,0.466-2.021,0.722-3.067,0.773c-1.049,0-2.021-0.309-2.888-0.906
				c-0.869-0.559-1.566-1.381-2.049-2.455c-0.507-1.054-0.763-2.282-0.763-3.646c0.053-1.255,0.228-2.36,0.536-3.363
				c0.312-1,0.709-1.819,1.278-2.512c0.536-0.688,1.178-1.2,1.944-1.561c0.74-0.36,1.559-0.541,2.482-0.541
				c0.865,0,1.762,0.18,2.658,0.565c0.865,0.385,1.608,1.053,2.223,1.973h0.355c0.027-0.28,0.1-0.694,0.253-1.206
				c0.128-0.536,0.286-0.976,0.462-1.333c-1.767-1.002-3.756-1.514-6.055-1.514c-1.894,0.022-3.501,0.335-4.833,0.902
				c-1.332,0.558-2.402,1.306-3.169,2.201c-0.794,0.923-1.356,1.925-1.688,3.002c-0.357,1.104-0.531,2.201-0.531,3.311
				c0,1.566,0.304,2.87,0.887,3.974c0.591,1.102,1.382,1.979,2.353,2.645c0.974,0.667,2.044,1.153,3.195,1.463
				c1.151,0.283,2.327,0.44,3.476,0.44c2.095,0,4.296-0.388,6.652-1.136V97.28c-0.665,0.102-1.307,0.152-1.893,0.152
				C100.546,97.432,99.958,97.382,99.293,97.28z"/>
			<path fill="#FFFFFF" d="M74.852,87.867V104.9h9.514c-0.053-0.356-0.103-0.694-0.182-0.975c0.053-0.309,0.129-0.721,0.207-1.181
				c-1.872,0.231-3.809,0.354-5.78,0.354v-6.337h2.637c1.202,0,2.221,0.081,3.017,0.236c-0.055-0.334-0.1-0.696-0.154-0.999
				c0-0.159,0.021-0.313,0.054-0.516c0.02-0.209,0.073-0.44,0.1-0.674c-0.613,0.129-1.432,0.208-2.405,0.208h-3.249v-5.33h0.845
				c1.56,0,3.195,0.1,4.911,0.329c-0.076-0.435-0.129-0.792-0.182-1.029c0.08-0.512,0.152-0.866,0.207-1.123h-9.54V87.867z"/>
			<path fill="#FFFFFF" d="M113.068,87.712c-0.148-0.03-0.307-0.03-0.453-0.03c-0.178-0.021-0.309-0.021-0.465-0.051l-0.051,0.133
				l-7.053,17.239c0.126-0.024,0.303-0.024,0.557-0.053c0.262,0,0.41-0.025,0.519-0.05c0.151,0.023,0.377,0.05,0.633,0.05
				c0.281,0.028,0.488,0.028,0.62,0.053c0.121-0.489,0.277-0.952,0.432-1.438c0.176-0.494,0.408-1.18,0.717-2.027
				c0.332-0.871,0.537-1.436,0.613-1.69h2.965h2.854c0.671,1.715,1.233,3.438,1.744,5.156c0.257-0.024,0.59-0.024,1.048-0.053
				c0.438,0,0.771-0.025,0.968-0.05c0.29,0.023,0.647,0.05,1.13,0.05c0.484,0.028,0.871,0.028,1.146,0.053l-6.95-17.373
				C113.963,87.631,113.631,87.682,113.068,87.712z M112.102,98.252h-2.277l2.277-5.666l0.049-0.129l2.254,5.795H112.102z"/>
			<path fill="#FFFFFF" d="M70.866,96.281c-0.18-1.36-0.308-2.673-0.458-3.849c-0.13-1.181-0.311-2.717-0.511-4.565
				c-0.405,0.05-0.77,0.103-1.022,0.131c-0.542-0.058-0.898-0.107-1.047-0.131c-0.465,0.975-0.973,2.026-1.536,3.151
				c-0.537,1.158-1.028,2.104-1.41,2.876c-0.382,0.766-0.842,1.667-1.379,2.688c-0.508,1.007-1.022,2.032-1.56,3.055
				c-2.525-5.077-4.446-8.999-5.721-11.77c-0.185,0.024-0.514,0.073-1.025,0.131c-0.104,0-0.258-0.028-0.463-0.058
				c-0.202-0.023-0.38-0.049-0.561-0.073c-0.381,2.87-0.792,5.823-1.22,8.852c-0.465,3.023-0.926,5.797-1.357,8.334
				c0.223-0.025,0.613-0.074,1.172-0.152c0.256,0.051,0.435,0.078,0.592,0.078c0.144,0.024,0.331,0.049,0.584,0.074
				c0-0.876,0.074-1.951,0.18-3.232c0.076-1.307,0.23-2.721,0.382-4.231c0.18-1.543,0.337-2.851,0.485-3.947
				c0.289,0.585,0.691,1.404,1.231,2.479c0.508,1.083,0.943,1.978,1.275,2.671c0.354,0.695,0.84,1.722,1.507,3.08
				c0.667,1.36,1.148,2.36,1.458,3.03h0.404h0.517c1.661-3.617,3.498-7.469,5.517-11.521c0.103,0.951,0.232,2.054,0.361,3.363
				c0.153,1.308,0.26,2.306,0.334,2.972c0.077,0.699,0.126,1.513,0.232,2.493c0.074,0.973,0.123,1.923,0.149,2.848
				c0.689-0.104,1.382-0.152,2.049-0.152c0.712,0,1.379,0.05,2.048,0.152c-0.262-1.643-0.466-3.184-0.646-4.598
				C71.225,99.028,71.046,97.634,70.866,96.281z"/>
			<path fill="#FFFFFF" d="M145.814,87.712c-0.152-0.03-0.305-0.03-0.457-0.03c-0.155-0.021-0.303-0.021-0.465-0.051l-0.045,0.133
				l-7.053,17.239c0.123-0.024,0.301-0.024,0.561-0.053c0.254,0,0.401-0.025,0.512-0.05c0.154,0.023,0.384,0.05,0.635,0.05
				c0.286,0.028,0.492,0.028,0.615,0.053c0.124-0.489,0.277-0.952,0.435-1.438c0.183-0.494,0.412-1.18,0.714-2.027
				c0.336-0.871,0.541-1.436,0.619-1.69h2.965h2.865c0.661,1.715,1.225,3.438,1.73,5.156c0.259-0.024,0.592-0.024,1.022-0.053
				c0.458,0,0.798-0.025,1-0.05c0.286,0.023,0.661,0.05,1.124,0.05c0.485,0.028,0.867,0.028,1.151,0.053L146.79,87.63
				C146.714,87.631,146.379,87.682,145.814,87.712z M144.85,98.252h-2.283l2.283-5.666l0.045-0.129l2.254,5.795H144.85z"/>
			<path fill="#FFFFFF" d="M175.036,103.102V87.867c-0.31,0.024-0.688,0.05-1.147,0.073c-0.438,0.058-0.69,0.058-0.742,0.058
				c-0.562-0.058-1.174-0.107-1.84-0.131V104.9h9.459c-0.055-0.387-0.108-0.724-0.158-1.026c0.05-0.462,0.131-0.823,0.211-1.128
				C178.59,102.979,176.68,103.102,175.036,103.102z"/>
			<path fill="#FFFFFF" d="M165.846,96.408c-0.658-0.288-1.412-0.461-2.195-0.543v-0.229c2.633-0.511,3.982-1.818,4.09-3.95
				c0-0.771-0.184-1.437-0.564-2.024c-0.381-0.563-0.947-1.023-1.639-1.331c-0.717-0.312-1.532-0.464-2.451-0.464h-0.945h-5.83
				V104.9h5.492c0.135,0,0.236,0,0.338,0c0.896-0.029,1.715-0.155,2.43-0.356c0.797-0.263,1.453-0.617,1.996-1.056
				c0.533-0.469,0.924-0.973,1.175-1.568c0.28-0.611,0.407-1.252,0.407-1.947c0-0.924-0.229-1.691-0.658-2.282
				C167.047,97.101,166.51,96.691,165.846,96.408z M160.068,89.325c0.437-0.053,0.793-0.097,1.103-0.097
				c0.353,0,0.687,0.044,0.968,0.097c1.252,0.289,1.865,1.157,1.865,2.619c0,0.567-0.1,1.079-0.279,1.536
				c-0.176,0.464-0.461,0.876-0.871,1.181c-0.201,0.152-0.432,0.281-0.715,0.385c-0.201,0.08-0.431,0.132-0.662,0.132
				c-0.261,0.048-0.713,0.048-1.406,0.048v-5.901H160.068z M163.797,101.896c-0.277,0.489-0.637,0.85-1.074,1.123
				c-0.195,0.133-0.377,0.211-0.584,0.285c-0.229,0.084-0.457,0.129-0.662,0.129h-1.406v-6.715h0.713
				c0.512,0,0.977,0.044,1.355,0.148c1.41,0.413,2.1,1.517,2.1,3.312C164.236,100.818,164.086,101.386,163.797,101.896z"/>
			<path fill="#FFFFFF" d="M187.486,103.102v-6.337h2.606c1.229,0,2.222,0.081,3.019,0.236c-0.055-0.334-0.104-0.696-0.152-0.999
				c0.021-0.159,0.049-0.313,0.049-0.516c0.051-0.209,0.078-0.44,0.104-0.674c-0.612,0.129-1.408,0.208-2.405,0.208h-3.22v-5.33
				h0.814c1.562,0,3.197,0.1,4.912,0.329c-0.056-0.435-0.102-0.792-0.154-1.029c0.078-0.512,0.133-0.866,0.198-1.123h-9.526V104.9
				h9.482c-0.056-0.357-0.102-0.695-0.154-0.976c0.053-0.309,0.1-0.721,0.198-1.181
				C191.372,102.979,189.454,103.102,187.486,103.102z"/>
			<path fill="#FFFFFF" d="M128.436,89.859c0.896-0.614,1.888-0.916,2.991-0.916c0.765,0,1.507,0.18,2.226,0.565
				c0.744,0.385,1.35,0.974,1.912,1.715h0.312c0.231-1.023,0.433-1.898,0.614-2.561c-0.409-0.282-1.102-0.563-2.043-0.822
				c-0.977-0.288-2.051-0.412-3.276-0.412c-1.356,0-2.757,0.253-4.216,0.771c-1.46,0.513-2.741,1.49-3.834,2.899
				c-1.102,1.435-1.657,3.409-1.684,5.901c0,1.098,0.199,2.155,0.631,3.179c0.438,0.998,1.053,1.9,1.869,2.692
				c0.818,0.772,1.814,1.387,2.965,1.825c1.174,0.438,2.479,0.67,3.937,0.67c2.021,0,3.654-0.362,4.935-1.086l0.561-2.153
				l-0.35-0.151c-0.549,0.565-1.231,1.024-2.077,1.359c-0.845,0.332-1.607,0.484-2.327,0.484c-1.301,0-2.4-0.303-3.295-0.924
				c-0.922-0.613-1.586-1.488-2.051-2.565c-0.459-1.098-0.661-2.333-0.661-3.72c0-1.591,0.256-2.949,0.771-4.1
				C126.824,91.359,127.541,90.456,128.436,89.859z"/>
		</g>
		<path fill="#FFFFFF" d="M196.887,104.339c-0.043-0.067-0.107-0.092-0.177-0.133c0.177,0,0.332-0.07,0.424-0.181
			c0.111-0.114,0.185-0.25,0.185-0.407c0-0.113-0.049-0.226-0.092-0.313c-0.093-0.091-0.16-0.154-0.272-0.199
			c-0.091-0.045-0.22-0.045-0.401-0.069h-0.871v2.134h0.334v-0.898h0.2c0.136,0,0.222,0.024,0.296,0.068
			c0,0,0.021,0.021,0.041,0.044c0.073,0.071,0.184,0.224,0.293,0.45l0.197,0.336h0.407l-0.248-0.427
			C197.064,104.545,196.979,104.402,196.887,104.339z M196.438,103.979h-0.422v-0.651h0.536c0.093,0,0.158,0.022,0.204,0.049
			c0.062,0.019,0.105,0.044,0.131,0.108c0.049,0.045,0.066,0.093,0.066,0.152c0,0.1-0.051,0.188-0.109,0.254
			c-0.064,0.051-0.154,0.065-0.292,0.065C196.512,103.956,196.484,103.979,196.438,103.979z M198.252,103.08
			c-0.177-0.312-0.423-0.561-0.742-0.715c-0.309-0.182-0.646-0.272-0.958-0.272c-0.337,0-0.673,0.093-0.981,0.272
			c-0.313,0.154-0.561,0.402-0.715,0.715c-0.182,0.312-0.272,0.654-0.272,0.986c0,0.336,0.092,0.676,0.247,0.99
			c0.182,0.314,0.427,0.562,0.74,0.715c0.31,0.186,0.625,0.271,0.981,0.271c0.335,0,0.649-0.087,0.958-0.271
			c0.319-0.153,0.565-0.399,0.742-0.715c0.155-0.314,0.247-0.654,0.247-0.99C198.499,103.734,198.407,103.395,198.252,103.08z
			 M197.96,104.9c-0.131,0.25-0.332,0.447-0.599,0.604c-0.271,0.134-0.543,0.2-0.811,0.2c-0.289,0-0.561-0.066-0.82-0.2
			c-0.252-0.157-0.451-0.354-0.612-0.604c-0.132-0.268-0.222-0.539-0.222-0.834c0-0.291,0.09-0.562,0.222-0.83
			c0.161-0.246,0.36-0.448,0.627-0.604c0.246-0.136,0.517-0.201,0.808-0.201c0.268,0,0.537,0.065,0.809,0.201
			c0.244,0.154,0.445,0.356,0.6,0.604c0.139,0.269,0.229,0.539,0.229,0.83C198.188,104.361,198.122,104.634,197.96,104.9z"/>
	</g>
	<g>
		<path fill="#FFFFFF" d="M23.525,74.953c-13.016,0-23.571,10.557-23.571,23.578c0,3.408,0.738,6.639,2.04,9.562
			c-0.25-8.275,2.569-16.336,7.801-22.613c1.976,0.28,3.587,1.558,4.361,3.276c-5.665,6.042-9.45,13.634-10.888,21.779
			c0.541,0.912,1.134,1.787,1.79,2.614C7.379,99.803,16.561,88.3,29.547,83.307c3.189,1.317,5.502,3.956,6.496,7.065
			c-13.466,3.465-23.845,13.13-28.704,25.261c0.573,0.543,1.173,1.055,1.798,1.536c4.375-9.263,12.25-16.54,21.916-20.139
			c2.474,1.318,4.034,3.852,4.158,6.592c-9.59,2.185-17.948,7.604-23.867,15.058c3.56,2.156,7.718,3.418,12.182,3.418
			c13.02,0,23.573-10.547,23.573-23.566C47.098,85.509,36.545,74.953,23.525,74.953z"/>
	</g>
</g>
</svg>
